<svg xmlns="http://www.w3.org/2000/svg" viewBox="0 0 32 32" id="Spider--Streamline-Emojitwo" height="32" width="32">
  <desc>
    Spider Streamline Emoji: https://streamlinehq.com
  </desc>
  <title>spider</title>
  <path fill="#75676d" d="M19.8 16.85s2.45 1.15 8.1 -1c1.3 -0.5 -3.4 5.25 -4.1 6.2 0.95 -0.9 8.35 -6.8 5.45 -7.55 -1.8 -0.45 -6.3 1.15 -6.95 0.8l-2.5 1.55" stroke-width="0.5"></path>
  <path fill="#5b4c52" d="M19.55 16.85s3.15 0.55 7.8 -1c1.35 -0.45 -2.85 5.25 -3.55 6.25 0.95 -0.9 7.65 -6.55 4.75 -7.3 -1.8 -0.45 -5.9 0.7 -6.5 0.4l-2.5 1.65" stroke-width="0.5"></path>
  <path fill="#75676d" d="M9.7 15.3c-0.6 0.35 -5.1 -1.25 -6.9 -0.8 -2.9 0.75 4.5 6.65 5.45 7.55 -0.7 -1 -5.4 -6.75 -4.1 -6.2 5.65 2.2 8.1 1 8.1 1l-2.55 -1.55" stroke-width="0.5"></path>
  <path fill="#5b4c52" d="M10 15.15c-0.65 0.3 -4.7 -0.85 -6.5 -0.4 -2.9 0.75 3.8 6.4 4.75 7.3 -0.7 -1 -4.9 -6.7 -3.55 -6.25 4.6 1.55 7.8 1 7.8 1l-2.5 -1.65" stroke-width="0.5"></path>
  <path fill="#a6aeb0" d="M15.5 1h1v9.65h-1z" opacity=".6" stroke-width="0.5"></path>
  <path fill="#5b4c52" d="M24.85 16.35c0 3.35 -3.95 5.6 -8.85 5.6s-8.85 -2.25 -8.85 -5.6C7.15 10.3 16 8.25 16 8.25s8.85 2.05 8.85 8.1" stroke-width="0.5"></path>
  <g fill="#e24b4b">
    <path d="M20 11.4s-1.8 -0.45 -4 -0.45 -4 0.45 -4 0.45 1.8 -1.5 4 -1.5 4 1.5 4 1.5" stroke-width="0.5"></path>
    <path d="M20 12.65s-1.8 -0.6 -4 -0.6 -4 0.6 -4 0.6 1.8 -1.75 4 -1.75 4 1.75 4 1.75" stroke-width="0.5"></path>
  </g>
  <path fill="#75676d" d="M20.2 23.2s2.7 0.9 8.25 -2.15c1.3 -0.7 -2.8 5.9 -3.4 7C25.9 27 32.75 19.9 29.65 19.5c-1.95 -0.25 -6.4 2.05 -7.05 1.8l-2.4 1.9" stroke-width="0.5"></path>
  <path fill="#5b4c52" d="M19.9 23.2s3.35 0.15 7.95 -2.1c1.35 -0.65 -2.2 5.85 -2.85 6.95 0.85 -1.1 7.05 -7.85 3.95 -8.2 -1.95 -0.25 -6 1.55 -6.7 1.3l-2.35 2.05" stroke-width="0.5"></path>
  <path fill="#75676d" d="M9.45 21.25c-0.7 0.25 -5.15 -2 -7.1 -1.75 -3.1 0.4 3.75 7.5 4.6 8.6 -0.6 -1.1 -4.7 -7.7 -3.4 -7 5.55 3.05 8.25 2.15 8.25 2.15l-2.35 -2" stroke-width="0.5"></path>
  <path fill="#5b4c52" d="M9.75 21.15c-0.7 0.25 -4.75 -1.5 -6.7 -1.3 -3.1 0.4 3.05 7.15 3.95 8.2 -0.6 -1.1 -4.15 -7.6 -2.85 -6.95 4.55 2.25 7.95 2.1 7.95 2.1l-2.35 -2.05" stroke-width="0.5"></path>
  <path fill="#75676d" d="M20.3 24.9s2.3 1.65 8.5 0.4c1.45 -0.3 -4.45 4.75 -5.35 5.65 1.15 -0.8 9.8 -5.5 7 -6.8 -1.8 -0.8 -7.2 0.05 -7.8 -0.4l-2.35 1.15" stroke-width="0.5"></path>
  <path fill="#5b4c52" d="M20.05 24.8s3.15 1.15 8.2 0.35c1.45 -0.2 -3.85 4.9 -4.8 5.8 1.15 -0.8 9.05 -5.35 6.25 -6.65 -1.8 -0.75 -6.7 -0.3 -7.3 -0.75l-2.35 1.25" stroke-width="0.5"></path>
  <path fill="#75676d" d="M9.35 23.75c-0.6 0.45 -6 -0.4 -7.8 0.4 -2.8 1.35 5.85 6.05 7 6.85 -0.9 -0.9 -6.8 -5.95 -5.35 -5.65 6.2 1.2 8.5 -0.4 8.5 -0.4l-2.35 -1.2" stroke-width="0.5"></path>
  <path fill="#5b4c52" d="M9.6 23.55c-0.6 0.45 -5.5 0 -7.3 0.8 -2.85 1.3 5.1 5.85 6.25 6.65 -0.9 -0.9 -6.25 -6.05 -4.8 -5.8 5.05 0.75 8.2 -0.35 8.2 -0.35l-2.35 -1.3" stroke-width="0.5"></path>
  <path fill="#75676d" d="M18.4 26.05S19.55 27.35 23.5 27.5c0.9 0.05 -3.35 2.25 -4.05 2.65 0.8 -0.3 6.7 -1.95 5.2 -3.15 -0.95 -0.75 -4.05 -0.95 -4.35 -1.3l-1.9 0.35" stroke-width="0.5"></path>
  <path fill="#5b4c52" d="M18.25 25.95s1.75 1.15 4.9 1.4c0.9 0.05 -3.05 2.4 -3.7 2.85 0.8 -0.3 6.25 -1.95 4.7 -3.15 -0.95 -0.75 -3.7 -1.1 -4 -1.45l-1.9 0.35" stroke-width="0.5"></path>
  <path fill="#75676d" d="M11.7 25.65c-0.3 0.35 -3.4 0.55 -4.35 1.3 -1.55 1.2 4.4 2.8 5.2 3.15 -0.7 -0.4 -4.95 -2.65 -4.05 -2.65 3.95 -0.15 5.1 -1.45 5.1 -1.45l-1.9 -0.35" stroke-width="0.5"></path>
  <g fill="#5b4c52">
    <path d="M11.8 25.5c-0.3 0.35 -3 0.7 -4 1.45 -1.55 1.2 3.9 2.85 4.7 3.15 -0.7 -0.4 -4.65 -2.75 -3.7 -2.85 3.15 -0.25 4.9 -1.4 4.9 -1.4l-1.9 -0.35" stroke-width="0.5"></path>
    <path d="M9.05 21.95a6.95 5.6 0 1 0 13.9 0 6.95 5.6 0 1 0 -13.9 0" stroke-width="0.5"></path>
  </g>
  <path fill="#ffe62e" d="M16.3 21.55a2.15 2.2 0 1 0 4.3 0 2.15 2.2 0 1 0 -4.3 0" stroke-width="0.5"></path>
  <path fill="#3f3438" d="M17 21.55a1.45 1.5 0 1 0 2.9 0 1.45 1.5 0 1 0 -2.9 0" stroke-width="0.5"></path>
  <path fill="#ffe62e" d="M11.4 21.55a2.15 2.2 0 1 0 4.3 0 2.15 2.2 0 1 0 -4.3 0" stroke-width="0.5"></path>
  <path fill="#3f3438" d="M15 21.55c0 0.85 -0.65 1.5 -1.45 1.5 -0.8 0 -1.45 -0.65 -1.45 -1.5s0.65 -1.5 1.45 -1.5c0.8 0 1.45 0.65 1.45 1.5" stroke-width="0.5"></path>
  <path fill="#ffffff" d="M17.4 24.75c0 -0.5 -0.6 -0.1 -1.4 -0.1s-1.4 -0.4 -1.4 0.1 0.6 0.85 1.4 0.85 1.4 -0.4 1.4 -0.85" stroke-width="0.5"></path>
</svg>